<?xml version="1.0" encoding="utf-8"?>
<!-- Generator: Adobe Illustrator 16.0.0, SVG Export Plug-In . SVG Version: 6.00 Build 0)  -->
<!DOCTYPE svg PUBLIC "-//W3C//DTD SVG 1.1//EN" "http://www.w3.org/Graphics/SVG/1.1/DTD/svg11.dtd">
<svg version="1.1" id="Layer_1" xmlns="http://www.w3.org/2000/svg" xmlns:xlink="http://www.w3.org/1999/xlink" x="0px" y="0px"
	 width="12px" height="17px" viewBox="0 0 12 17" enable-background="new 0 0 12 17" xml:space="preserve">
<g>
	<path fill="#231F20" d="M6.001,6.706c-0.181,0-0.361-0.069-0.499-0.207L0.207,1.205c-0.275-0.276-0.275-0.723,0-0.998
		c0.276-0.276,0.723-0.276,0.999,0l4.795,4.795l4.794-4.795c0.276-0.276,0.723-0.276,0.998,0c0.276,0.275,0.276,0.722,0,0.998
		L6.5,6.499C6.362,6.637,6.182,6.706,6.001,6.706z"/>
</g>
<g>
	<path fill="#231F20" d="M6.001,17c-0.181,0-0.361-0.068-0.499-0.206l-5.295-5.295c-0.275-0.276-0.275-0.723,0-0.999
		c0.276-0.275,0.723-0.275,0.999,0l4.795,4.796l4.794-4.796c0.276-0.275,0.723-0.275,0.998,0c0.276,0.276,0.276,0.723,0,0.999
		L6.5,16.794C6.362,16.932,6.182,17,6.001,17z"/>
</g>
</svg>
